<svg 
 xmlns="http://www.w3.org/2000/svg"
 xmlns:xlink="http://www.w3.org/1999/xlink"
 width="19px" height="17px">
<path fill-rule="evenodd"  fill="rgb(36, 63, 77)"
 d="M18.936,3.932 L16.813,11.888 C16.744,12.147 16.508,12.327 16.240,12.327 L5.885,12.327 C5.876,12.326 5.868,12.326 5.862,12.327 C4.533,12.328 3.657,12.821 3.182,13.837 C3.082,14.051 2.868,14.178 2.645,14.178 C2.561,14.178 2.476,14.161 2.395,14.122 C2.099,13.984 1.970,13.632 2.109,13.335 C2.688,12.096 3.736,11.361 5.163,11.184 L4.108,5.793 C4.045,5.472 4.254,5.161 4.575,5.098 C4.896,5.032 5.207,5.246 5.271,5.566 L6.362,11.144 L15.785,11.144 L17.592,4.372 L4.314,4.372 C4.306,4.372 4.298,4.372 4.290,4.372 C2.162,4.372 0.321,2.789 0.007,0.680 C-0.042,0.355 0.181,0.054 0.505,0.006 C0.820,-0.049 1.129,0.180 1.178,0.505 C1.407,2.037 2.745,3.187 4.293,3.187 C4.299,3.187 4.305,3.187 4.311,3.187 L18.363,3.187 C18.547,3.187 18.721,3.273 18.833,3.419 C18.945,3.565 18.983,3.755 18.936,3.932 ZM5.527,12.831 C5.529,12.831 5.530,12.831 5.533,12.831 C6.083,12.831 6.602,13.044 6.994,13.433 C7.386,13.826 7.602,14.346 7.602,14.899 C7.604,15.740 7.103,16.493 6.325,16.817 C6.067,16.925 5.795,16.978 5.526,16.978 C4.990,16.978 4.463,16.768 4.065,16.371 C3.468,15.777 3.291,14.891 3.612,14.111 C3.934,13.334 4.686,12.831 5.527,12.831 ZM4.901,15.533 C5.157,15.787 5.538,15.862 5.870,15.724 C6.203,15.585 6.418,15.261 6.417,14.901 C6.417,14.663 6.324,14.441 6.157,14.272 C5.991,14.107 5.768,14.015 5.533,14.015 C5.530,14.015 5.529,14.015 5.529,14.015 C5.167,14.015 4.845,14.230 4.707,14.564 C4.570,14.897 4.645,15.279 4.901,15.533 ZM13.918,12.831 C14.464,12.791 14.998,13.049 15.386,13.434 C15.778,13.826 15.993,14.346 15.993,14.899 C15.996,15.739 15.496,16.493 14.719,16.817 C14.459,16.925 14.187,16.977 13.918,16.978 C13.381,16.978 12.854,16.768 12.457,16.371 C11.860,15.776 11.683,14.891 12.005,14.111 C12.326,13.334 13.077,12.831 13.918,12.831 ZM13.293,15.533 C13.549,15.788 13.931,15.862 14.263,15.724 C14.595,15.585 14.810,15.261 14.809,14.901 C14.809,14.663 14.717,14.441 14.549,14.272 C14.384,14.109 14.157,14.015 13.924,14.015 C13.923,14.015 13.923,14.015 13.923,14.015 C13.592,14.047 13.238,14.229 13.100,14.563 C12.961,14.897 13.037,15.279 13.293,15.533 Z"/>
</svg>