<svg 
 xmlns="http://www.w3.org/2000/svg"
 xmlns:xlink="http://www.w3.org/1999/xlink"
 width="19px" height="17px">
<path fill-rule="evenodd"  fill="rgb(36, 63, 77)"
 d="M9.913,16.245 C9.818,16.245 9.722,16.226 9.633,16.188 C9.280,16.038 0.983,12.439 0.983,5.429 C1.074,2.779 3.190,0.721 5.801,0.721 C7.544,0.721 9.067,1.639 9.913,3.031 C10.760,1.639 12.282,0.721 14.025,0.721 C16.634,0.721 18.750,2.779 18.842,5.405 C18.842,12.439 10.545,16.038 10.193,16.188 C10.103,16.226 10.008,16.245 9.913,16.245 ZM5.801,2.106 C3.954,2.106 2.458,3.576 2.393,5.453 C2.393,10.859 8.518,14.115 9.913,14.787 C11.308,14.115 17.433,10.857 17.433,5.429 C17.368,3.576 15.870,2.106 14.025,2.106 C12.180,2.106 10.683,3.576 10.617,5.453 C10.605,5.825 10.293,6.122 9.913,6.122 L9.913,6.122 C9.533,6.122 9.221,5.825 9.208,5.453 C9.144,3.576 7.647,2.106 5.801,2.106 Z"/>
</svg>